<svg version="1.0" xmlns="http://www.w3.org/2000/svg" width="2133.333" height="2133.333" viewBox="0 0 1600 1600"><path d="M756.5 64.1c-145.6 7.1-284 54-400.7 135.6-54.5 38.2-107.5 88-148.7 139.6C93.4 482.2 43.9 662.3 70 838.5c19.2 129.1 76.6 247.7 169 349 20.5 22.5 52.4 52.8 72.2 68.5l5.7 4.5.3 142.2.3 142.2 18-9.6c9.9-5.3 71.9-37.6 137.8-71.9l119.9-62.3 13.6 3.5c44.7 11.3 90.6 18.8 137.7 22.6 20.3 1.6 79.7 1.6 101.5 0 9.1-.7 24.6-2.2 34.5-3.3 206.4-22.9 392.6-127.6 512.7-288.2 107.7-144.1 151.3-322 121.8-497.1-31.7-188-148.1-356.6-319.2-462.4-40.7-25.1-87.7-48.1-133.8-65.2-95.3-35.5-202.4-52-305.5-46.9zm67 63.9c121.4 5.6 232 38.3 332 98.3 94.6 56.8 173.1 136 226.1 228.3 108.4 188.7 104.1 417-11.4 601.9-46.8 75-111.7 141.4-187.9 192.3-133.2 88.9-297.7 128.9-461.3 112.2-37.9-3.9-69.5-9.7-111.6-20.5l-25.2-6.5-4.3 2.5c-2.4 1.3-48 25.1-101.4 52.9l-97 50.5-.3-104.2-.3-104.2-10.7-8c-33.4-25.1-68.6-58.3-98-92.5-75.2-87.6-123.1-192-139.1-303.5-7.4-51.5-7.4-111.8 0-163 24.5-169.9 122.3-321.2 272.4-421.6 42.2-28.2 93.2-54.1 142.8-72.4 86.5-31.8 182.7-46.7 275.2-42.5z"/><path d="M533 761.5C357.2 947.6 337.8 968.3 340.5 966.8c57.2-32.2 340.6-190.8 341.3-191 .5-.2 42 43.6 92.1 97.2 50.1 53.6 91.5 97.6 91.9 97.8.9.3 376.6-406.7 376-407.3-.2-.2-74.6 41.3-165.3 92.2-90.8 50.9-165.6 92.7-166.4 93-.8.4-36.2-34.3-95-93.1l-93.7-93.7L533 761.5z"/></svg>